<svg id="svg" version="1.1" xmlns="http://www.w3.org/2000/svg" xmlns:xlink="http://www.w3.org/1999/xlink" width="400" height="400" viewBox="0, 0, 400,400"><g id="svgg"><path id="path0" d="M98.436 131.757 C 97.781 132.546,97.794 348.669,98.449 349.459 C 98.696 349.756,99.326 350.000,99.849 350.000 C 100.372 350.000,100.800 350.180,100.800 350.400 C 100.800 351.297,139.893 350.907,140.800 350.000 C 141.240 349.560,141.870 349.200,142.200 349.200 C 142.731 349.200,142.800 342.444,142.800 290.800 C 142.800 258.680,142.904 232.400,143.030 232.400 C 143.322 232.400,148.430 237.557,150.758 240.200 C 151.726 241.300,155.687 245.472,159.559 249.472 C 163.432 253.471,167.680 257.916,169.000 259.349 C 170.320 260.782,173.920 264.549,177.000 267.720 C 180.080 270.892,185.390 276.428,188.800 280.024 C 200.505 292.366,198.818 291.520,202.882 287.091 C 204.552 285.271,206.951 282.796,208.214 281.591 C 209.476 280.386,210.889 278.962,211.354 278.427 C 213.418 276.051,216.048 273.232,219.200 270.015 C 221.070 268.107,225.390 263.614,228.800 260.030 C 232.210 256.447,236.170 252.294,237.600 250.802 C 239.030 249.310,242.090 246.081,244.400 243.628 C 253.663 233.792,255.184 232.251,255.414 232.480 C 255.545 232.612,255.749 258.792,255.866 290.660 C 256.022 332.807,256.205 348.900,256.538 349.700 L 256.995 350.800 278.233 350.800 L 299.472 350.800 299.934 349.786 C 300.430 348.697,300.654 133.527,300.160 132.241 C 299.788 131.271,298.637 131.125,292.471 131.269 L 286.843 131.400 284.322 134.003 C 282.935 135.435,280.691 137.955,279.335 139.603 C 277.979 141.251,275.772 143.680,274.429 145.000 C 271.564 147.818,271.091 148.333,268.883 151.045 C 267.967 152.170,265.841 154.503,264.158 156.230 C 262.475 157.957,260.105 160.615,258.891 162.137 C 257.677 163.658,255.810 165.819,254.742 166.939 C 253.674 168.059,252.800 169.103,252.800 169.261 C 252.800 169.418,252.440 169.660,252.000 169.800 C 251.560 169.940,251.200 170.214,251.200 170.409 C 251.200 170.604,250.795 171.181,250.300 171.690 C 249.805 172.200,248.640 173.526,247.711 174.637 C 246.782 175.749,245.522 177.199,244.911 177.861 C 244.300 178.522,242.630 180.380,241.200 181.988 C 239.770 183.596,237.205 186.353,235.500 188.113 C 233.795 189.874,232.400 191.457,232.400 191.630 C 232.400 191.804,232.049 192.057,231.620 192.194 C 231.192 192.330,230.723 192.837,230.578 193.320 C 230.326 194.165,229.266 195.417,225.800 198.966 C 224.920 199.868,223.097 201.954,221.749 203.602 C 220.401 205.251,218.016 207.906,216.449 209.503 C 214.882 211.100,213.599 212.540,213.597 212.703 C 213.596 212.866,211.346 215.340,208.597 218.200 C 205.849 221.059,203.600 223.473,203.600 223.562 C 203.600 223.652,202.655 224.594,201.500 225.657 C 199.072 227.891,198.425 227.897,196.600 225.703 C 195.940 224.910,193.555 222.361,191.300 220.039 C 189.045 217.717,187.200 215.629,187.200 215.398 C 187.200 215.167,185.401 213.093,183.203 210.789 C 181.004 208.485,179.204 206.469,179.203 206.310 C 179.201 206.150,177.826 204.620,176.147 202.910 C 174.467 201.199,172.631 199.170,172.066 198.400 C 171.500 197.630,169.859 195.813,168.418 194.363 C 166.978 192.912,165.080 190.848,164.202 189.777 C 162.455 187.644,159.958 184.901,154.900 179.554 C 153.085 177.635,151.600 175.856,151.600 175.601 C 151.600 175.345,150.025 173.538,148.100 171.586 C 142.889 166.302,139.209 162.227,138.305 160.739 C 137.862 160.012,136.848 158.818,136.050 158.087 C 132.950 155.244,132.550 154.838,131.000 152.954 C 129.528 151.166,126.868 148.124,123.965 144.911 C 123.324 144.202,122.800 143.524,122.800 143.404 C 122.800 143.284,121.315 141.723,119.500 139.935 C 117.685 138.146,115.915 136.256,115.567 135.734 C 115.219 135.211,113.989 133.978,112.834 132.992 L 110.735 131.200 104.816 131.200 C 100.249 131.200,98.793 131.327,98.436 131.757 " stroke="none" fill="#fbd346" fill-rule="evenodd"></path><path id="path1" d="M52.005 189.300 C 52.008 277.135,52.119 349.405,52.252 349.900 L 52.493 350.800 74.397 350.800 L 96.300 350.800 96.553 349.537 C 96.692 348.842,96.802 299.306,96.797 239.457 C 96.790 142.959,96.857 130.571,97.393 130.036 C 98.102 129.327,108.885 129.043,111.072 129.676 C 111.970 129.935,113.794 131.643,117.272 135.479 C 119.983 138.468,122.387 141.114,122.616 141.357 C 122.844 141.601,126.780 146.030,131.362 151.200 C 135.945 156.370,140.584 161.500,141.673 162.600 C 142.762 163.700,145.094 166.282,146.857 168.338 C 148.619 170.393,150.879 172.913,151.879 173.938 C 152.878 174.962,155.324 177.690,157.313 180.000 C 161.976 185.414,165.704 189.545,170.258 194.345 C 172.270 196.465,174.520 198.959,175.258 199.887 C 176.544 201.504,185.671 211.767,186.567 212.604 C 186.805 212.826,188.349 214.536,189.998 216.404 C 191.647 218.272,193.177 219.994,193.398 220.231 C 193.619 220.468,194.860 221.863,196.156 223.331 C 199.224 226.807,199.054 226.826,202.792 222.581 C 203.557 221.711,206.077 218.908,208.392 216.350 C 210.706 213.793,214.258 209.833,216.284 207.550 C 222.348 200.718,227.028 195.552,231.246 191.034 C 232.701 189.475,234.941 186.940,236.224 185.400 C 237.507 183.860,239.481 181.610,240.610 180.400 C 244.688 176.031,247.856 172.494,250.800 169.021 C 252.450 167.076,254.610 164.641,255.600 163.610 C 259.885 159.148,261.661 157.199,264.000 154.389 C 265.367 152.745,268.042 149.769,269.943 147.776 C 271.844 145.782,274.592 142.812,276.049 141.176 C 287.733 128.049,285.928 129.241,293.921 129.371 C 298.649 129.448,300.175 129.603,300.625 130.054 C 301.134 130.562,301.208 144.612,301.208 239.219 C 301.207 298.938,301.319 348.475,301.456 349.300 L 301.705 350.800 324.038 350.800 C 345.709 350.800,346.384 350.777,346.786 350.026 C 347.069 349.497,347.200 298.834,347.200 189.426 L 347.200 29.600 337.351 29.600 L 327.502 29.600 324.905 32.300 C 323.476 33.785,321.383 36.067,320.254 37.371 C 319.124 38.676,317.234 40.746,316.053 41.971 C 314.872 43.197,313.432 44.830,312.854 45.600 C 312.275 46.370,310.766 48.049,309.501 49.332 C 308.235 50.615,307.200 51.741,307.200 51.835 C 307.200 52.095,305.339 54.200,301.948 57.779 C 300.270 59.551,298.385 61.630,297.760 62.400 C 297.134 63.170,295.475 65.000,294.073 66.466 C 292.671 67.932,291.239 69.552,290.891 70.066 C 290.543 70.580,289.117 72.179,287.723 73.620 C 286.329 75.062,284.786 76.756,284.294 77.385 C 283.802 78.013,282.680 79.265,281.800 80.166 C 280.920 81.067,279.210 82.972,278.000 84.399 C 276.790 85.826,274.875 87.985,273.744 89.197 C 272.613 90.408,271.176 92.030,270.551 92.800 C 269.926 93.570,268.422 95.194,267.208 96.408 C 265.993 97.623,264.499 99.284,263.886 100.100 C 263.273 100.916,261.721 102.654,260.436 103.963 C 259.151 105.272,257.406 107.211,256.558 108.271 C 255.709 109.332,254.562 110.657,254.008 111.216 C 253.453 111.775,251.650 113.751,250.000 115.608 C 248.350 117.465,246.255 119.798,245.343 120.792 C 244.432 121.786,243.082 123.291,242.343 124.135 C 241.605 124.980,239.773 126.982,238.273 128.584 C 236.774 130.187,235.252 131.926,234.893 132.449 C 234.533 132.972,233.030 134.660,231.552 136.200 C 230.075 137.740,228.266 139.720,227.533 140.599 C 226.800 141.479,225.236 143.189,224.058 144.399 C 222.880 145.610,221.350 147.302,220.658 148.161 C 219.966 149.019,218.395 150.819,217.166 152.161 C 215.937 153.502,214.227 155.406,213.366 156.391 C 212.505 157.376,211.010 158.996,210.045 159.991 C 209.080 160.986,207.640 162.609,206.845 163.598 C 204.566 166.432,200.552 170.400,199.963 170.400 C 199.381 170.400,195.677 166.670,192.800 163.186 C 191.810 161.987,190.256 160.285,189.346 159.403 C 188.436 158.522,186.793 156.720,185.695 155.400 C 184.597 154.080,182.896 152.173,181.915 151.162 C 180.935 150.151,179.842 148.909,179.487 148.403 C 179.132 147.896,177.528 146.104,175.921 144.420 C 174.314 142.736,172.010 140.198,170.800 138.780 C 169.590 137.363,167.963 135.572,167.185 134.801 C 166.406 134.031,164.966 132.419,163.985 131.220 C 163.003 130.021,161.570 128.400,160.800 127.617 C 160.030 126.834,158.698 125.385,157.840 124.397 C 156.982 123.409,155.177 121.430,153.829 120.000 C 152.482 118.570,151.089 116.984,150.734 116.474 C 150.379 115.965,149.124 114.525,147.944 113.273 C 146.765 112.021,145.017 110.098,144.059 108.999 C 143.102 107.899,141.300 105.920,140.055 104.600 C 138.810 103.280,136.868 101.111,135.738 99.780 C 134.609 98.450,132.901 96.542,131.942 95.541 C 130.984 94.539,129.596 93.018,128.858 92.160 C 128.120 91.302,126.768 89.790,125.854 88.800 C 124.939 87.810,123.447 86.100,122.537 85.000 C 121.628 83.900,119.920 82.006,118.742 80.792 C 117.564 79.577,115.880 77.703,115.000 76.627 C 114.120 75.551,112.252 73.485,110.849 72.036 C 109.446 70.586,107.826 68.771,107.249 68.001 C 106.672 67.232,105.210 65.609,104.000 64.394 C 102.790 63.180,100.958 61.199,99.928 59.993 C 98.899 58.787,97.369 57.056,96.528 56.148 C 95.688 55.239,94.078 53.439,92.952 52.148 C 91.825 50.856,89.890 48.720,88.652 47.401 C 87.413 46.081,86.400 44.904,86.400 44.786 C 86.400 44.667,85.095 43.206,83.500 41.539 C 80.445 38.345,75.260 32.665,73.642 30.740 L 72.684 29.600 62.342 29.600 L 52.000 29.600 52.005 189.300 " stroke="none" fill="#3573a2" fill-rule="evenodd"></path><path id="path2" d="M98.028 129.668 C 96.456 130.250,97.228 130.334,104.500 130.377 L 111.800 130.420 113.400 132.132 C 114.280 133.073,116.348 135.364,117.994 137.222 C 119.641 139.080,121.081 140.690,121.194 140.800 C 121.308 140.910,122.660 142.436,124.200 144.190 C 125.740 145.945,128.890 149.462,131.200 152.006 C 133.510 154.550,136.094 157.434,136.941 158.415 C 137.789 159.397,140.143 162.000,142.171 164.200 C 145.753 168.084,147.409 169.935,149.832 172.764 C 150.474 173.514,151.540 174.695,152.200 175.388 C 152.860 176.081,153.767 177.088,154.216 177.624 C 154.665 178.161,156.375 180.048,158.016 181.818 C 161.962 186.073,166.430 191.063,167.851 192.800 C 168.480 193.570,169.195 194.380,169.438 194.600 C 169.682 194.820,171.460 196.769,173.390 198.931 C 175.319 201.093,177.281 203.263,177.749 203.754 C 178.217 204.245,179.140 205.268,179.800 206.028 C 181.535 208.026,184.798 211.637,188.896 216.093 C 190.865 218.234,192.978 220.617,193.591 221.388 C 194.204 222.160,195.732 223.900,196.988 225.256 L 199.271 227.722 200.735 226.112 C 201.541 225.226,202.827 223.714,203.593 222.751 C 204.359 221.788,206.099 219.830,207.460 218.400 C 208.821 216.970,210.474 215.119,211.134 214.286 C 211.794 213.454,213.270 211.834,214.412 210.686 C 215.555 209.539,216.965 207.972,217.545 207.205 C 218.125 206.438,219.705 204.638,221.055 203.205 C 222.406 201.772,224.022 199.970,224.647 199.200 C 225.271 198.430,226.687 196.881,227.791 195.757 C 228.896 194.633,231.274 192.023,233.076 189.957 C 234.878 187.891,237.038 185.461,237.876 184.558 C 240.693 181.525,245.081 176.612,246.236 175.200 C 246.865 174.430,248.391 172.720,249.626 171.400 C 250.861 170.080,252.664 168.100,253.633 167.000 C 254.602 165.900,256.125 164.246,257.019 163.325 C 257.913 162.404,259.264 160.889,260.022 159.957 C 260.780 159.026,262.750 156.802,264.400 155.014 C 270.048 148.896,273.920 144.600,275.049 143.200 C 275.670 142.430,277.325 140.600,278.727 139.134 C 280.129 137.668,281.568 136.053,281.924 135.545 C 282.280 135.036,283.176 133.986,283.915 133.210 C 285.206 131.856,286.213 130.400,285.859 130.400 C 285.702 130.400,282.544 133.868,276.046 141.176 C 274.591 142.812,271.844 145.782,269.943 147.776 C 268.042 149.769,265.367 152.745,264.000 154.389 C 261.661 157.199,259.885 159.148,255.600 163.610 C 254.610 164.641,252.450 167.076,250.800 169.021 C 247.856 172.494,244.688 176.031,240.610 180.400 C 239.481 181.610,237.507 183.860,236.224 185.400 C 234.941 186.940,232.701 189.475,231.246 191.034 C 227.028 195.552,222.348 200.718,216.284 207.550 C 214.258 209.833,210.706 213.793,208.392 216.350 C 206.077 218.908,203.557 221.711,202.792 222.581 C 199.054 226.826,199.224 226.807,196.156 223.331 C 194.860 221.863,193.619 220.468,193.398 220.231 C 193.177 219.994,191.647 218.272,189.998 216.404 C 188.349 214.536,186.805 212.826,186.567 212.604 C 185.671 211.767,176.544 201.504,175.258 199.887 C 174.520 198.959,172.270 196.465,170.258 194.345 C 165.704 189.545,161.976 185.414,157.313 180.000 C 155.324 177.690,152.878 174.962,151.879 173.938 C 150.879 172.913,148.619 170.393,146.857 168.338 C 145.094 166.282,142.762 163.700,141.673 162.600 C 140.584 161.500,135.945 156.370,131.362 151.200 C 126.780 146.030,122.844 141.602,122.616 141.359 C 122.387 141.117,120.045 138.536,117.410 135.625 C 114.776 132.714,112.256 130.135,111.810 129.894 C 110.876 129.388,99.297 129.198,98.028 129.668 M286.929 129.822 C 286.300 130.298,287.216 130.376,293.580 130.387 C 299.167 130.397,300.848 130.288,300.497 129.937 C 299.772 129.212,287.867 129.111,286.929 129.822 M300.801 241.132 C 300.804 301.449,300.939 350.800,301.103 350.800 C 301.429 350.800,301.325 131.991,300.999 131.665 C 300.888 131.555,300.799 180.814,300.801 241.132 M96.718 135.100 C 96.625 136.805,96.680 138.650,96.840 139.200 C 97.012 139.789,97.145 138.515,97.166 136.100 C 97.206 131.259,96.958 130.704,96.718 135.100 M96.899 244.250 C 96.845 301.478,96.711 348.908,96.601 349.650 L 96.403 351.000 96.802 349.741 C 97.065 348.913,97.167 312.842,97.100 244.341 L 96.998 140.200 96.899 244.250 " stroke="none" fill="#67775d" fill-rule="evenodd"></path><path id="path3" d="M51.600 189.600 C 51.600 278.260,51.735 350.800,51.900 350.800 C 52.065 350.800,52.154 278.530,52.098 190.200 L 51.996 29.600 62.340 29.600 L 72.684 29.600 73.642 30.740 C 75.260 32.665,80.445 38.345,83.500 41.539 C 85.095 43.206,86.400 44.667,86.400 44.786 C 86.400 44.904,87.413 46.081,88.652 47.401 C 89.890 48.720,91.825 50.856,92.952 52.148 C 94.078 53.439,95.688 55.239,96.528 56.148 C 97.369 57.056,98.899 58.787,99.928 59.993 C 100.958 61.199,102.790 63.180,104.000 64.394 C 105.210 65.609,106.672 67.232,107.249 68.001 C 107.826 68.771,109.446 70.586,110.849 72.036 C 112.252 73.485,114.120 75.551,115.000 76.627 C 115.880 77.703,117.564 79.577,118.742 80.792 C 119.920 82.006,121.628 83.900,122.537 85.000 C 123.447 86.100,124.939 87.810,125.854 88.800 C 126.768 89.790,128.120 91.302,128.858 92.160 C 129.596 93.018,130.984 94.539,131.942 95.541 C 132.901 96.542,134.609 98.450,135.738 99.780 C 136.868 101.111,138.810 103.280,140.055 104.600 C 141.300 105.920,143.102 107.899,144.059 108.999 C 145.017 110.098,146.765 112.021,147.944 113.273 C 149.124 114.525,150.379 115.965,150.734 116.474 C 151.089 116.984,152.482 118.570,153.829 120.000 C 155.177 121.430,156.982 123.409,157.840 124.397 C 158.698 125.385,160.030 126.834,160.800 127.617 C 161.570 128.400,163.003 130.021,163.985 131.220 C 164.966 132.419,166.406 134.031,167.185 134.801 C 167.963 135.572,169.590 137.363,170.800 138.780 C 172.010 140.198,174.314 142.736,175.921 144.420 C 177.528 146.104,179.132 147.896,179.487 148.403 C 179.842 148.909,180.935 150.151,181.915 151.162 C 182.896 152.173,184.597 154.080,185.695 155.400 C 186.793 156.720,188.436 158.522,189.346 159.403 C 190.256 160.285,191.810 161.987,192.800 163.186 C 195.677 166.670,199.381 170.400,199.963 170.400 C 200.552 170.400,204.566 166.432,206.845 163.598 C 207.640 162.609,209.080 160.986,210.045 159.991 C 211.010 158.996,212.505 157.376,213.366 156.391 C 214.227 155.406,215.937 153.502,217.166 152.161 C 218.395 150.819,219.966 149.019,220.658 148.161 C 221.350 147.302,222.880 145.610,224.058 144.399 C 225.236 143.189,226.800 141.479,227.533 140.599 C 228.266 139.720,230.075 137.740,231.552 136.200 C 233.030 134.660,234.533 132.972,234.893 132.449 C 235.252 131.926,236.774 130.187,238.273 128.584 C 239.773 126.982,241.605 124.980,242.343 124.135 C 243.082 123.291,244.432 121.786,245.343 120.792 C 246.255 119.798,248.350 117.465,250.000 115.608 C 251.650 113.751,253.453 111.775,254.008 111.216 C 254.562 110.657,255.709 109.332,256.558 108.271 C 257.406 107.211,259.151 105.272,260.436 103.963 C 261.721 102.654,263.273 100.916,263.886 100.100 C 264.499 99.284,265.993 97.623,267.208 96.408 C 268.422 95.194,269.926 93.570,270.551 92.800 C 271.176 92.030,272.613 90.408,273.744 89.197 C 274.875 87.985,276.790 85.826,278.000 84.399 C 279.210 82.972,280.920 81.067,281.800 80.166 C 282.680 79.265,283.802 78.013,284.294 77.385 C 284.786 76.756,286.329 75.062,287.723 73.620 C 289.117 72.179,290.543 70.580,290.891 70.066 C 291.239 69.552,292.671 67.932,294.073 66.466 C 295.475 65.000,297.134 63.170,297.760 62.400 C 298.385 61.630,300.270 59.551,301.948 57.779 C 305.339 54.200,307.200 52.095,307.200 51.835 C 307.200 51.741,308.235 50.615,309.501 49.332 C 310.766 48.049,312.275 46.370,312.854 45.600 C 313.432 44.830,314.872 43.197,316.053 41.971 C 317.234 40.746,319.124 38.676,320.254 37.371 C 321.383 36.067,323.476 33.785,324.905 32.300 L 327.502 29.600 337.351 29.600 L 347.200 29.600 347.200 189.426 C 347.200 298.834,347.069 349.497,346.786 350.026 C 346.427 350.697,346.507 350.800,347.386 350.800 L 348.400 350.800 348.400 189.600 L 348.400 28.400 337.791 28.400 L 327.183 28.400 324.991 30.591 C 323.786 31.797,322.800 32.973,322.800 33.207 C 322.800 33.440,321.180 35.237,319.200 37.200 C 317.220 39.163,315.600 40.964,315.600 41.202 C 315.600 41.440,314.160 43.059,312.400 44.800 C 310.640 46.541,309.200 48.160,309.200 48.398 C 309.200 48.636,307.580 50.437,305.600 52.400 C 303.620 54.363,302.000 56.162,302.000 56.399 C 302.000 56.635,300.200 58.615,298.000 60.800 C 295.800 62.985,294.000 64.957,294.000 65.183 C 294.000 65.409,292.380 67.227,290.400 69.222 C 288.420 71.217,286.800 73.017,286.800 73.222 C 286.800 73.427,285.360 75.048,283.600 76.824 C 281.840 78.601,280.400 80.230,280.400 80.444 C 280.400 80.659,278.960 82.259,277.200 84.000 C 275.440 85.741,274.000 87.343,274.000 87.560 C 274.000 87.778,272.200 89.767,270.000 91.980 C 267.800 94.194,266.000 96.183,266.000 96.400 C 266.000 96.617,264.380 98.427,262.400 100.422 C 260.420 102.417,258.800 104.226,258.800 104.442 C 258.800 104.658,257.360 106.259,255.600 108.000 C 253.840 109.741,252.400 111.336,252.400 111.543 C 252.400 111.751,250.600 113.757,248.400 116.000 C 246.200 118.243,244.400 120.249,244.400 120.457 C 244.400 120.664,242.960 122.259,241.200 124.000 C 239.440 125.741,238.000 127.360,238.000 127.597 C 238.000 127.834,236.200 129.815,234.000 132.000 C 231.800 134.185,230.000 136.157,230.000 136.383 C 230.000 136.609,228.560 138.248,226.800 140.024 C 225.040 141.801,223.600 143.429,223.600 143.643 C 223.600 143.856,221.980 145.637,220.000 147.600 C 218.020 149.563,216.400 151.364,216.400 151.602 C 216.400 151.840,214.960 153.459,213.200 155.200 C 211.440 156.941,210.000 158.560,210.000 158.798 C 210.000 159.036,208.380 160.837,206.400 162.800 C 204.420 164.763,202.800 166.562,202.800 166.798 C 202.800 167.034,202.170 167.857,201.400 168.627 L 200.000 170.027 198.600 168.627 C 197.830 167.857,197.200 167.034,197.200 166.798 C 197.200 166.562,195.580 164.763,193.600 162.800 C 191.620 160.837,190.000 159.037,190.000 158.800 C 190.000 158.563,188.380 156.763,186.400 154.800 C 184.420 152.837,182.800 151.036,182.800 150.798 C 182.800 150.560,181.360 148.941,179.600 147.200 C 177.840 145.459,176.400 143.857,176.400 143.640 C 176.400 143.422,174.600 141.433,172.400 139.220 C 170.200 137.006,168.400 135.009,168.400 134.782 C 168.400 134.555,166.780 132.763,164.800 130.800 C 162.820 128.837,161.200 127.036,161.200 126.798 C 161.200 126.560,159.760 124.941,158.000 123.200 C 156.240 121.459,154.800 119.840,154.800 119.602 C 154.800 119.364,153.180 117.563,151.200 115.600 C 149.220 113.637,147.600 111.856,147.600 111.643 C 147.600 111.429,146.160 109.801,144.400 108.024 C 142.640 106.248,141.200 104.626,141.200 104.419 C 141.200 104.213,139.400 102.233,137.200 100.020 C 135.000 97.806,133.200 95.809,133.200 95.582 C 133.200 95.355,131.580 93.563,129.600 91.600 C 127.620 89.637,126.000 87.836,126.000 87.598 C 126.000 87.360,124.560 85.741,122.800 84.000 C 121.040 82.259,119.600 80.658,119.600 80.442 C 119.600 80.226,117.980 78.417,116.000 76.422 C 114.020 74.427,112.400 72.627,112.400 72.422 C 112.400 72.217,110.780 70.417,108.800 68.422 C 106.820 66.427,105.200 64.609,105.200 64.382 C 105.200 64.155,103.580 62.363,101.600 60.400 C 99.620 58.437,98.000 56.637,98.000 56.400 C 98.000 56.163,96.380 54.363,94.400 52.400 C 92.420 50.437,90.800 48.655,90.800 48.440 C 90.800 48.225,89.180 46.417,87.200 44.422 C 85.220 42.427,83.600 40.608,83.600 40.380 C 83.600 40.152,82.160 38.541,80.400 36.800 C 78.640 35.059,77.200 33.443,77.200 33.208 C 77.200 32.974,76.214 31.797,75.009 30.591 L 72.817 28.400 62.209 28.400 L 51.600 28.400 51.600 189.600 M97.388 130.322 C 96.927 130.653,96.837 350.800,97.299 350.800 C 97.502 350.800,97.989 131.474,97.788 130.122 C 97.782 130.079,97.602 130.169,97.388 130.322 M112.118 131.314 C 113.247 132.484,118.912 138.739,123.137 143.481 C 124.940 145.506,126.637 147.298,126.908 147.463 C 127.277 147.688,122.430 142.030,121.200 140.800 C 121.090 140.690,120.190 139.695,119.200 138.589 C 118.210 137.483,116.156 135.188,114.635 133.489 C 113.114 131.790,111.727 130.400,111.553 130.400 C 111.379 130.400,111.633 130.811,112.118 131.314 M285.495 131.300 C 285.166 131.795,284.381 132.746,283.749 133.413 C 281.932 135.332,281.293 136.358,282.939 134.713 C 286.203 131.451,287.097 130.400,286.606 130.400 C 286.323 130.400,285.823 130.805,285.495 131.300 M300.000 130.551 C 300.000 130.634,300.270 130.926,300.600 131.200 C 301.091 131.608,301.200 131.580,301.200 131.049 C 301.200 130.692,300.930 130.400,300.600 130.400 C 300.270 130.400,300.000 130.468,300.000 130.551 M277.841 140.071 C 275.953 142.090,274.483 143.816,274.573 143.907 C 274.664 143.997,275.427 143.292,276.269 142.340 C 277.111 141.388,278.681 139.662,279.758 138.505 C 280.835 137.347,281.617 136.400,281.495 136.400 C 281.373 136.400,279.729 138.052,277.841 140.071 M128.800 149.793 C 129.790 150.888,130.645 151.863,130.700 151.959 C 130.755 152.055,130.886 152.047,130.991 151.943 C 131.096 151.838,130.241 150.863,129.091 149.776 L 127.000 147.800 128.800 149.793 M268.418 150.534 L 267.037 152.200 268.718 150.619 C 269.643 149.749,270.400 148.984,270.400 148.919 C 270.400 148.459,269.594 149.116,268.418 150.534 M133.956 155.500 C 135.567 157.315,136.973 158.800,137.082 158.800 C 137.371 158.800,133.472 154.370,132.154 153.200 C 131.534 152.650,132.345 153.685,133.956 155.500 M264.068 155.357 C 262.490 156.984,261.200 158.464,261.200 158.646 C 261.200 158.829,261.529 158.623,261.931 158.189 C 262.334 157.755,263.711 156.275,264.992 154.900 C 268.228 151.428,267.555 151.761,264.068 155.357 M137.600 159.448 C 137.600 159.658,138.545 160.723,139.700 161.815 L 141.800 163.800 139.800 161.608 C 138.700 160.403,137.755 159.338,137.700 159.242 C 137.645 159.145,137.600 159.238,137.600 159.448 M142.822 165.486 C 145.944 168.853,148.896 171.763,147.400 170.000 C 145.036 167.214,141.982 164.000,141.699 164.000 C 141.558 164.000,142.063 164.669,142.822 165.486 M253.634 166.929 C 252.662 168.068,250.461 170.518,248.742 172.374 C 247.022 174.230,245.686 175.819,245.771 175.905 C 245.857 175.991,246.709 175.195,247.664 174.136 C 249.568 172.025,253.100 168.138,254.966 166.100 C 255.621 165.385,255.987 164.813,255.778 164.829 C 255.570 164.846,254.605 165.791,253.634 166.929 M148.800 172.125 C 148.800 172.194,149.373 172.779,150.074 173.425 L 151.349 174.600 150.374 173.322 C 149.547 172.237,148.800 171.669,148.800 172.125 M152.000 175.525 C 152.000 175.704,152.570 176.379,153.266 177.025 L 154.533 178.200 153.419 176.700 C 152.289 175.179,152.000 174.939,152.000 175.525 M243.781 178.100 L 242.200 179.800 243.900 178.219 C 245.481 176.748,245.784 176.400,245.481 176.400 C 245.416 176.400,244.651 177.165,243.781 178.100 M157.049 181.200 C 157.711 181.970,159.161 183.590,160.270 184.800 C 161.379 186.010,163.675 188.575,165.373 190.500 C 167.070 192.425,168.552 194.000,168.665 194.000 C 168.921 194.000,167.534 192.328,163.853 188.201 C 160.850 184.834,154.980 178.794,157.049 181.200 M241.233 180.715 C 240.921 181.092,240.294 181.850,239.839 182.400 C 239.383 182.950,239.773 182.688,240.705 181.819 C 241.637 180.949,242.400 180.184,242.400 180.119 C 242.400 179.774,241.729 180.117,241.233 180.715 M238.400 184.113 C 237.292 185.012,231.109 192.000,231.457 191.960 C 231.646 191.939,233.476 190.049,235.524 187.760 C 237.573 185.472,239.193 183.606,239.124 183.613 C 239.056 183.620,238.730 183.845,238.400 184.113 M169.908 195.400 C 170.369 196.060,172.121 198.040,173.802 199.800 L 176.858 203.000 173.366 199.000 C 169.226 194.256,168.802 193.815,169.908 195.400 M225.765 197.900 C 224.907 198.945,223.286 200.790,222.163 202.000 C 219.952 204.383,218.870 205.622,216.574 208.400 L 215.087 210.200 216.843 208.395 C 219.407 205.760,226.918 197.290,227.307 196.595 C 227.925 195.490,227.334 195.990,225.765 197.900 M177.549 203.900 C 177.757 204.285,178.425 205.050,179.033 205.600 C 180.005 206.478,179.977 206.392,178.803 204.900 C 177.395 203.110,176.918 202.730,177.549 203.900 M183.384 210.526 C 185.351 212.657,187.049 214.400,187.159 214.400 C 187.268 214.400,186.820 213.815,186.163 213.100 C 185.506 212.385,184.083 210.810,183.000 209.600 C 181.917 208.390,180.756 207.232,180.419 207.026 C 180.083 206.821,181.417 208.396,183.384 210.526 M211.438 213.885 C 210.631 214.922,208.852 216.958,207.485 218.411 C 206.118 219.863,204.640 221.504,204.200 222.057 C 203.118 223.417,207.426 218.936,210.887 215.100 C 212.426 213.395,213.510 212.000,213.296 212.000 C 213.082 212.000,212.246 212.848,211.438 213.885 M190.631 218.600 C 194.052 222.320,195.548 223.681,193.378 221.100 C 191.163 218.465,187.698 214.800,187.421 214.800 C 187.265 214.800,188.709 216.510,190.631 218.600 M196.200 224.800 C 197.283 225.900,198.260 226.800,198.370 226.800 C 198.480 226.800,197.683 225.900,196.600 224.800 C 195.517 223.700,194.540 222.800,194.430 222.800 C 194.320 222.800,195.117 223.700,196.200 224.800 " stroke="none" fill="#7995a3" fill-rule="evenodd"></path><path id="path4" d="M50.800 189.600 C 50.800 296.800,50.934 350.800,51.200 350.800 C 51.466 350.800,51.600 296.800,51.600 189.600 C 51.600 82.400,51.466 28.400,51.200 28.400 C 50.934 28.400,50.800 82.400,50.800 189.600 M73.200 28.629 C 73.200 28.927,74.275 30.000,74.575 30.000 C 74.702 30.000,74.582 29.640,74.307 29.200 C 73.838 28.449,73.200 28.120,73.200 28.629 M325.323 29.497 C 324.841 30.092,324.515 30.648,324.599 30.732 C 324.771 30.904,326.800 28.956,326.800 28.618 C 326.800 28.100,326.135 28.495,325.323 29.497 M77.200 33.360 C 77.200 33.751,81.633 38.101,81.830 37.903 C 81.925 37.808,81.237 36.936,80.301 35.965 C 78.376 33.968,77.200 32.980,77.200 33.360 M319.691 35.880 C 318.312 37.330,317.263 38.597,317.362 38.695 C 317.547 38.881,322.800 33.774,322.800 33.407 C 322.800 32.825,321.969 33.487,319.691 35.880 M83.600 40.607 C 83.600 40.975,88.853 46.080,89.040 45.894 C 89.235 45.699,84.211 40.400,83.831 40.400 C 83.704 40.400,83.600 40.493,83.600 40.607 M312.491 43.880 C 311.112 45.330,310.063 46.597,310.162 46.695 C 310.347 46.881,315.600 41.774,315.600 41.407 C 315.600 40.825,314.769 41.487,312.491 43.880 M90.800 48.607 C 90.800 48.975,96.053 54.080,96.240 53.894 C 96.435 53.699,91.411 48.400,91.031 48.400 C 90.904 48.400,90.800 48.493,90.800 48.607 M306.098 51.092 C 304.722 52.543,303.674 53.807,303.768 53.902 C 303.950 54.083,309.200 48.965,309.200 48.607 C 309.200 48.032,308.374 48.694,306.098 51.092 M98.000 56.607 C 98.000 56.975,103.253 62.080,103.440 61.894 C 103.635 61.699,98.611 56.400,98.231 56.400 C 98.104 56.400,98.000 56.493,98.000 56.607 M298.504 59.510 C 296.911 61.177,295.682 62.615,295.774 62.707 C 295.950 62.884,302.000 56.957,302.000 56.606 C 302.000 56.036,301.146 56.745,298.504 59.510 M105.200 64.607 C 105.200 64.975,110.453 70.080,110.640 69.894 C 110.835 69.699,105.811 64.400,105.431 64.400 C 105.304 64.400,105.200 64.493,105.200 64.607 M291.295 67.482 C 290.138 68.715,289.270 69.803,289.366 69.900 C 289.550 70.084,294.000 65.771,294.000 65.409 C 294.000 64.837,293.209 65.443,291.295 67.482 M112.400 72.560 C 112.400 72.955,116.834 77.300,117.033 77.100 C 117.130 77.004,116.432 76.132,115.482 75.162 C 113.454 73.091,112.400 72.201,112.400 72.560 M284.095 75.482 C 282.938 76.715,282.070 77.803,282.166 77.900 C 282.350 78.084,286.800 73.771,286.800 73.409 C 286.800 72.837,286.009 73.443,284.095 75.482 M119.600 80.609 C 119.600 80.968,124.049 85.285,124.231 85.102 C 124.415 84.919,120.165 80.400,119.809 80.400 C 119.694 80.400,119.600 80.494,119.600 80.609 M277.291 83.080 C 275.912 84.530,274.863 85.797,274.962 85.895 C 275.147 86.081,280.400 80.974,280.400 80.607 C 280.400 80.025,279.569 80.687,277.291 83.080 M126.000 87.807 C 126.000 88.175,131.253 93.280,131.440 93.094 C 131.635 92.899,126.611 87.600,126.231 87.600 C 126.104 87.600,126.000 87.693,126.000 87.807 M270.492 90.688 C 268.892 92.354,267.664 93.797,267.762 93.895 C 267.931 94.064,272.369 89.763,273.549 88.287 C 274.978 86.499,273.093 87.980,270.492 90.688 M133.200 95.807 C 133.200 96.175,138.453 101.280,138.640 101.094 C 138.835 100.899,133.811 95.600,133.431 95.600 C 133.304 95.600,133.200 95.693,133.200 95.807 M263.022 99.022 C 261.556 100.489,260.442 101.776,260.548 101.881 C 260.654 101.987,261.941 100.874,263.407 99.407 C 264.874 97.941,265.987 96.654,265.881 96.548 C 265.776 96.442,264.489 97.556,263.022 99.022 M141.200 104.609 C 141.200 104.973,145.650 109.283,145.835 109.098 C 145.933 109.000,145.035 107.903,143.841 106.660 C 141.829 104.567,141.200 104.078,141.200 104.609 M256.226 106.626 C 254.950 107.843,254.003 108.937,254.124 109.057 C 254.244 109.177,255.362 108.255,256.609 107.009 C 259.556 104.061,259.244 103.749,256.226 106.626 M147.600 111.807 C 147.600 112.175,152.853 117.280,153.040 117.094 C 153.235 116.899,148.211 111.600,147.831 111.600 C 147.704 111.600,147.600 111.693,147.600 111.807 M249.291 114.300 C 247.911 115.738,246.863 116.996,246.962 117.095 C 247.133 117.266,250.782 113.748,251.949 112.287 C 253.268 110.635,251.584 111.911,249.291 114.300 M154.800 119.758 C 154.800 120.155,160.036 125.297,160.236 125.097 C 160.333 125.000,159.465 123.948,158.306 122.760 C 155.988 120.382,154.800 119.365,154.800 119.758 M241.695 122.682 C 240.538 123.915,239.670 125.003,239.766 125.100 C 239.950 125.284,244.400 120.971,244.400 120.609 C 244.400 120.037,243.609 120.643,241.695 122.682 M161.200 127.007 C 161.200 127.400,166.459 132.474,166.659 132.274 C 166.854 132.079,161.775 126.800,161.393 126.800 C 161.287 126.800,161.200 126.893,161.200 127.007 M234.891 130.280 C 233.512 131.730,232.463 132.997,232.562 133.095 C 232.747 133.281,238.000 128.174,238.000 127.807 C 238.000 127.225,237.169 127.887,234.891 130.280 M97.867 130.667 C 97.720 130.813,97.603 131.488,97.606 132.167 L 97.612 133.400 98.117 132.400 C 98.619 131.408,98.669 131.399,104.667 131.290 L 110.711 131.180 112.822 132.982 C 113.983 133.973,115.219 135.199,115.567 135.706 C 116.422 136.949,120.531 141.116,120.347 140.552 C 120.222 140.169,114.913 134.209,112.118 131.314 C 111.239 130.402,98.700 129.833,97.867 130.667 M286.273 131.300 C 284.642 132.810,281.347 136.628,282.200 136.019 C 282.640 135.705,283.833 134.538,284.851 133.424 L 286.702 131.400 292.400 131.269 C 299.110 131.115,299.802 131.239,300.335 132.699 L 300.737 133.800 300.768 132.580 C 300.822 130.525,300.408 130.400,293.542 130.400 C 287.566 130.400,287.195 130.446,286.273 131.300 M300.301 241.900 C 300.246 301.025,300.046 349.715,299.857 350.100 C 299.603 350.618,299.681 350.800,300.157 350.800 C 300.746 350.800,300.800 341.713,300.800 242.600 C 300.800 183.090,300.711 134.400,300.601 134.400 C 300.492 134.400,300.357 182.775,300.301 241.900 M168.400 135.007 C 168.400 135.366,173.650 140.483,173.832 140.301 C 174.018 140.116,168.977 134.800,168.616 134.800 C 168.497 134.800,168.400 134.893,168.400 135.007 M227.295 138.682 C 226.138 139.915,225.270 141.003,225.366 141.100 C 225.550 141.284,230.000 136.971,230.000 136.609 C 230.000 136.037,229.209 136.643,227.295 138.682 M278.138 140.300 C 276.412 142.225,274.820 143.932,274.600 144.094 C 274.337 144.287,274.343 144.390,274.617 144.394 C 275.096 144.401,277.488 141.945,279.966 138.900 C 282.599 135.664,281.625 136.410,278.138 140.300 M97.797 241.400 C 97.797 298.600,97.843 322.059,97.900 293.532 C 97.957 265.005,97.957 218.205,97.900 189.532 C 97.843 160.859,97.797 184.200,97.797 241.400 M176.400 143.809 C 176.400 144.173,180.850 148.483,181.035 148.298 C 181.133 148.200,180.235 147.103,179.041 145.860 C 177.029 143.767,176.400 143.278,176.400 143.809 M220.491 146.280 C 219.112 147.730,218.063 148.997,218.162 149.095 C 218.347 149.281,223.600 144.174,223.600 143.807 C 223.600 143.225,222.769 143.887,220.491 146.280 M125.033 146.000 C 125.450 146.550,126.603 147.902,127.596 149.004 C 129.910 151.574,132.374 154.445,132.727 154.981 C 132.878 155.212,133.530 155.850,134.176 156.400 L 135.350 157.400 134.448 156.212 C 133.425 154.864,128.187 149.021,125.837 146.606 C 124.977 145.723,124.615 145.450,125.033 146.000 M271.170 147.853 C 270.245 148.856,270.241 148.880,271.092 148.361 C 271.583 148.062,272.072 147.588,272.180 147.309 C 272.466 146.562,272.252 146.677,271.170 147.853 M266.663 152.965 C 262.912 157.043,261.921 158.545,265.243 155.117 C 267.522 152.765,270.569 149.200,270.300 149.200 C 270.204 149.200,268.568 150.894,266.663 152.965 M182.800 150.958 C 182.800 151.355,188.036 156.497,188.236 156.297 C 188.333 156.200,187.465 155.148,186.306 153.960 C 183.988 151.582,182.800 150.565,182.800 150.958 M213.291 154.280 C 211.912 155.730,210.863 156.997,210.962 157.095 C 211.147 157.281,216.400 152.174,216.400 151.807 C 216.400 151.225,215.569 151.887,213.291 154.280 M190.000 159.007 C 190.000 159.375,195.253 164.480,195.440 164.294 C 195.635 164.099,190.611 158.800,190.231 158.800 C 190.104 158.800,190.000 158.893,190.000 159.007 M206.870 161.473 C 205.479 162.903,204.430 164.164,204.540 164.274 C 204.740 164.474,210.000 159.400,210.000 159.007 C 210.000 158.451,209.186 159.092,206.870 161.473 M138.649 161.286 C 139.178 162.185,140.875 164.034,142.610 165.600 C 143.617 166.510,143.276 165.983,141.635 164.096 C 139.125 161.208,137.957 160.110,138.649 161.286 M257.754 162.900 C 254.560 166.268,251.499 170.014,252.143 169.767 C 252.504 169.628,252.800 169.398,252.800 169.257 C 252.800 169.115,253.797 167.936,255.016 166.637 C 257.291 164.211,259.784 161.200,259.517 161.200 C 259.434 161.200,258.641 161.965,257.754 162.900 M197.200 167.013 C 197.200 167.131,197.830 167.857,198.600 168.627 L 200.000 170.027 201.440 168.587 C 202.232 167.795,202.777 167.044,202.652 166.918 C 202.526 166.793,201.862 167.291,201.177 168.025 L 199.930 169.360 198.812 168.080 C 197.770 166.886,197.200 166.509,197.200 167.013 M144.451 167.900 C 145.447 169.169,149.778 173.419,149.157 172.518 C 148.369 171.373,144.423 167.200,144.128 167.200 C 144.004 167.200,144.149 167.515,144.451 167.900 M247.566 174.301 C 242.994 179.222,239.200 183.534,239.200 183.809 C 239.200 184.171,242.660 180.464,247.400 175.023 C 247.620 174.771,248.236 174.077,248.770 173.482 C 250.451 171.606,249.416 172.311,247.566 174.301 M151.600 175.618 C 151.600 175.864,153.085 177.630,154.900 179.541 C 156.715 181.453,159.149 184.074,160.309 185.367 C 161.468 186.659,162.488 187.645,162.575 187.558 C 162.663 187.471,161.714 186.305,160.467 184.966 C 159.220 183.628,156.715 180.877,154.900 178.852 C 153.085 176.827,151.600 175.372,151.600 175.618 M236.961 186.100 C 236.078 187.035,235.116 188.160,234.824 188.600 C 234.532 189.040,235.307 188.361,236.546 187.090 C 238.561 185.026,239.058 184.400,238.683 184.400 C 238.619 184.400,237.844 185.165,236.961 186.100 M164.179 189.678 C 165.817 191.754,170.011 196.083,169.981 195.665 C 169.970 195.519,168.327 193.690,166.330 191.600 C 164.332 189.510,163.364 188.645,164.179 189.678 M227.745 196.210 C 226.455 197.669,225.251 199.163,225.069 199.531 C 224.886 199.899,225.396 199.480,226.202 198.600 C 227.007 197.720,228.316 196.330,229.111 195.511 C 229.906 194.692,230.451 193.918,230.323 193.790 C 230.195 193.661,229.035 194.750,227.745 196.210 M171.919 198.200 C 173.016 199.738,178.190 205.210,177.739 204.356 C 177.553 204.002,175.974 202.202,174.232 200.356 C 172.489 198.510,171.448 197.540,171.919 198.200 M220.978 203.900 C 219.482 205.605,217.170 208.125,215.841 209.500 C 214.511 210.875,213.566 212.000,213.740 212.000 C 214.193 212.000,218.862 207.111,221.667 203.700 C 224.812 199.875,224.406 199.993,220.978 203.900 M179.219 206.285 C 179.229 206.458,180.416 207.860,181.856 209.400 C 183.297 210.940,184.413 211.996,184.338 211.748 C 184.161 211.167,179.194 205.867,179.219 206.285 M210.043 216.001 C 208.230 217.978,206.986 219.503,207.279 219.391 C 207.965 219.128,213.748 212.814,213.515 212.582 C 213.419 212.485,211.856 214.024,210.043 216.001 M187.222 215.400 C 187.208 215.860,193.954 222.979,194.185 222.748 C 194.269 222.664,192.740 220.886,190.786 218.798 C 188.833 216.709,187.229 215.180,187.222 215.400 M205.178 221.500 L 203.800 223.000 205.300 221.622 C 206.696 220.338,206.984 220.000,206.678 220.000 C 206.612 220.000,205.937 220.675,205.178 221.500 M196.400 225.600 C 197.097 226.480,197.869 227.200,198.115 227.200 C 198.361 227.200,197.859 226.480,197.000 225.600 C 196.141 224.720,195.369 224.000,195.285 224.000 C 195.201 224.000,195.703 224.720,196.400 225.600 M142.800 233.200 C 142.800 233.640,142.941 234.000,143.114 234.000 C 143.286 234.000,143.736 234.522,144.113 235.161 C 144.490 235.799,148.264 239.814,152.499 244.081 C 156.735 248.349,160.730 252.540,161.377 253.394 C 162.024 254.249,165.624 258.025,169.377 261.785 C 173.130 265.546,176.698 269.284,177.306 270.093 C 177.914 270.901,181.334 274.503,184.906 278.096 C 188.478 281.690,192.210 285.611,193.200 286.809 C 198.931 293.749,199.566 293.794,204.330 287.612 C 204.919 286.848,208.470 283.146,212.223 279.385 C 215.976 275.625,219.576 271.845,220.223 270.986 C 220.870 270.126,224.650 266.167,228.623 262.186 C 232.595 258.206,236.375 254.250,237.023 253.395 C 237.670 252.540,241.665 248.349,245.901 244.081 C 250.136 239.814,253.910 235.799,254.287 235.161 C 254.664 234.522,255.114 234.000,255.286 234.000 C 255.459 234.000,255.600 233.640,255.600 233.200 C 255.600 231.688,255.950 231.362,244.400 243.628 C 242.090 246.081,239.030 249.310,237.600 250.802 C 236.170 252.294,232.210 256.447,228.800 260.030 C 225.390 263.614,221.070 268.107,219.200 270.015 C 216.048 273.232,213.418 276.051,211.354 278.427 C 210.889 278.962,209.476 280.386,208.214 281.591 C 206.951 282.796,204.552 285.271,202.882 287.091 C 198.818 291.520,200.505 292.366,188.800 280.024 C 185.390 276.428,180.080 270.892,177.000 267.720 C 173.920 264.549,170.320 260.782,169.000 259.349 C 167.680 257.916,163.432 253.471,159.559 249.472 C 155.687 245.472,151.726 241.300,150.758 240.200 C 148.430 237.557,143.322 232.400,143.030 232.400 C 142.904 232.400,142.800 232.760,142.800 233.200 M255.128 246.000 C 254.978 247.650,254.841 271.905,254.823 299.900 L 254.791 350.800 255.796 350.800 C 256.819 350.800,257.123 350.083,256.404 349.364 C 256.148 349.108,255.977 334.074,255.923 306.984 C 255.830 260.914,255.572 241.111,255.128 246.000 M97.654 348.900 L 97.600 350.800 99.200 350.800 C 100.080 350.800,100.800 350.620,100.800 350.400 C 100.800 350.180,100.372 350.000,99.849 350.000 C 98.740 350.000,98.150 349.397,97.893 348.000 C 97.786 347.418,97.686 347.795,97.654 348.900 M141.100 349.632 C 140.031 350.255,140.264 350.800,141.600 350.800 C 142.533 350.800,142.800 350.622,142.800 350.000 C 142.800 349.127,142.192 348.996,141.100 349.632 " stroke="none" fill="#e8dca2" fill-rule="evenodd"></path></g></svg>